# Blender 3.4.1
# www.blender.org
mtllib cube.mtl
o Cube
v -0.042500 -0.042500 -0.042500
v -0.042500 0.042500 -0.042500
v 0.042500 -0.042500 -0.042500
v 0.042500 0.042500 -0.042500
v -0.042500 -0.042500 0.042500
v -0.042500 0.042500 0.042500
v 0.042500 -0.042500 0.042500
v 0.042500 0.042500 0.042500
vn -0.0000 -0.0000 1.0000
vn -0.0000 -0.0000 -1.0000
vn -0.0000 1.0000 -0.0000
vn -0.0000 -1.0000 -0.0000
vn 1.0000 -0.0000 -0.0000
vn -1.0000 -0.0000 -0.0000
vt 0.283097 0.831164
vt 0.749239 0.887631
vt 0.739775 0.862107
vt 0.278518 0.236126
vt 0.759842 0.245965
vt 0.736140 0.262096
vt 0.731141 0.829882
vt 0.259555 0.899842
vt 0.306286 0.795460
vt 0.726333 0.233786
vt 0.298895 0.264281
vt 0.311097 0.244236
vt 0.685536 0.805184
vt 0.743134 0.249086
vt 0.285060 0.865338
vt 0.682745 0.278317
vt 0.770527 0.863949
vt 0.285060 0.263711
vt 0.286530 0.808905
vt 0.258029 0.234840
vt 0.727408 0.800593
vt 0.285661 0.279475
vt 0.308053 0.880230
vt 0.729334 0.240394
s 0
usemtl face1
f 5/13/1 7/19/1 8/22/1 6/16/1
usemtl face2
f 8/24/5 7/21/5 3/9/5 4/12/5
usemtl face3
f 4/10/2 3/7/2 1/1/2 2/4/2
usemtl face4
f 2/6/6 1/3/6 5/15/6 6/18/6
usemtl face5
f 2/5/3 6/17/3 8/23/3 4/11/3
usemtl face6
f 5/14/4 1/2/4 3/8/4 7/20/4
